<svg width="34" height="36" viewBox="0 0 34 36" fill="none" xmlns="http://www.w3.org/2000/svg">
<path id="Instagram" fill-rule="evenodd" clip-rule="evenodd" d="M30.9092 24.9361C30.9092 28.5113 28.011 31.4094 24.4365 31.4094H9.69186C6.1174 31.4094 3.21922 28.5113 3.21922 24.9361V10.1921C3.21922 6.61693 6.1174 3.71946 9.69186 3.71946H24.4365C28.011 3.71946 30.9092 6.61693 30.9092 10.1921V24.9361ZM24.4737 1.05005H9.65469C4.62684 1.05005 0.549805 5.12637 0.549805 10.1549V24.974C0.549805 30.0025 4.62684 34.0781 9.65469 34.0781H24.4737C29.5016 34.0781 33.5786 30.0025 33.5786 24.974V10.1549C33.5786 5.12637 29.5016 1.05005 24.4737 1.05005ZM17.0638 23.2411C13.9283 23.2411 11.3876 20.7003 11.3876 17.5648C11.3876 14.4293 13.9283 11.8871 17.0638 11.8871C20.2001 11.8871 22.7408 14.4293 22.7408 17.5648C22.7408 20.7003 20.2001 23.2411 17.0638 23.2411ZM17.0638 8.86026C12.2569 8.86026 8.36002 12.7571 8.36002 17.5648C8.36002 22.3718 12.2569 26.2686 17.0638 26.2686C21.8715 26.2686 25.7684 22.3718 25.7684 17.5648C25.7684 12.7571 21.8715 8.86026 17.0638 8.86026ZM26.0644 10.5231C27.1424 10.5231 28.016 9.6495 28.016 8.57144C28.016 7.49267 27.1424 6.61836 26.0644 6.61836C24.9856 6.61836 24.1113 7.49267 24.1113 8.57144C24.1113 9.6495 24.9856 10.5231 26.0644 10.5231Z" fill="#181726"/>
</svg>
