<svg width="40" height="36" viewBox="0 0 40 36" fill="none" xmlns="http://www.w3.org/2000/svg">
<path id="LinkedIn" fill-rule="evenodd" clip-rule="evenodd" d="M39.8002 35.7H31.2138V23.15C31.2138 19.8651 29.8707 17.6225 26.9172 17.6225C24.6581 17.6225 23.4018 19.1359 22.817 20.5943C22.5977 21.1178 22.632 21.847 22.632 22.5762V35.7H14.1256C14.1256 35.7 14.2352 13.4689 14.1256 11.4481H22.632V15.2543C23.1345 13.5901 25.8528 11.215 30.1905 11.215C35.5721 11.215 39.8002 14.7034 39.8002 22.2151V35.7ZM5.5232 8.41466H5.46838C2.72732 8.41466 0.950195 6.56074 0.950195 4.21076C0.950195 1.81506 2.77986 0 5.57574 0C8.36934 0 10.0871 1.81049 10.1419 4.2039C10.1419 6.55388 8.36934 8.41466 5.5232 8.41466ZM1.93013 35.7H9.50231V11.4481H1.93013V35.7Z" fill="#181726"/>
</svg>
