<svg width="38" height="32" viewBox="0 0 38 32" fill="none" xmlns="http://www.w3.org/2000/svg">
<path id="Twitter" fill-rule="evenodd" clip-rule="evenodd" d="M32.118 5.79839C33.5864 4.88103 34.7131 3.42643 35.2439 1.69364C33.8691 2.54305 32.3498 3.16099 30.7268 3.49226C29.4333 2.05039 27.5846 1.15002 25.5386 1.15002C21.6154 1.15002 18.4325 4.47332 18.4325 8.57169C18.4325 9.15353 18.4935 9.71839 18.6155 10.262C12.7073 9.95197 7.47022 7.0003 3.9619 2.50482C3.34973 3.6048 2.99991 4.88103 2.99991 6.24008C2.99991 8.81377 4.25477 11.0859 6.16248 12.4174C4.99914 12.3813 3.90089 12.0436 2.94093 11.4915V11.5828C2.94093 15.1801 5.39167 18.1806 8.64576 18.8601C8.04986 19.0342 7.42141 19.1213 6.77263 19.1213C6.31502 19.1213 5.86758 19.0767 5.43438 18.9896C6.33942 21.9371 8.96304 24.0839 12.0748 24.1413C9.64233 26.1331 6.57535 27.3202 3.246 27.3202C2.67247 27.3202 2.10503 27.2862 1.5498 27.2182C4.69611 29.3205 8.43425 30.55 12.447 30.55C25.5243 30.55 32.6732 19.2423 32.6732 9.43384C32.6732 9.11106 32.6671 8.78829 32.6549 8.47189C34.044 7.425 35.25 6.11904 36.1998 4.63046C34.9266 5.22079 33.5559 5.62001 32.118 5.79839Z" fill="#181726"/>
</svg>
